<?xml version="1.0" encoding="UTF-8"?>
<svg version="1.1" xmlns="http://www.w3.org/2000/svg" width="512" height="512">
<path d="M0 0 C4.58135985 0.80821548 8.3791968 2.45854439 12.5 4.5625 C13.55840088 5.10040161 13.55840088 5.10040161 14.63818359 5.64916992 C73.2331261 35.84464796 106.33429068 94.81270709 125.75244141 155.49853516 C126.85638501 158.99269301 127.93439927 162.49396465 129 166 C142.80294472 150.66713767 144.97593302 133.62051352 144.17285156 113.65820312 C143.52584566 103.70820269 140.36520743 94.32692008 137 85 C141.40052182 85.45595768 144.00832401 88.40492445 147.0625 91.3125 C147.63468262 91.85084473 148.20686523 92.38918945 148.79638672 92.94384766 C158.85563997 102.51811613 167.6163283 112.95617682 176 124 C176.5455957 124.71043457 177.09119141 125.42086914 177.65332031 126.15283203 C207.93132022 165.67152022 234.87567021 216.95553826 235.203125 267.98828125 C235.21018463 268.72474884 235.21724426 269.46121643 235.22451782 270.22000122 C235.45315139 301.07659815 235.45315139 301.07659815 232 315 C231.79600586 315.83982422 231.59201172 316.67964844 231.38183594 317.54492188 C228.38585734 329.55500203 224.4662039 340.89745934 219 352 C218.66097656 352.69577148 218.32195312 353.39154297 217.97265625 354.10839844 C204.38724619 381.68976666 183.03530181 406.00127337 159 425 C157.98679687 425.83015625 156.97359375 426.6603125 155.9296875 427.515625 C118.44473712 458 118.44473712 458 109 458 C109.64216666 453.60491127 111.32100004 449.9189351 113.1875 445.9375 C135.11044269 397.22425671 132.45037891 338.26916134 113.97265625 288.96875 C98.79603946 250.07429384 75.53496894 217.05708612 42 192 C42.01571045 192.73822998 42.0314209 193.47645996 42.04760742 194.23706055 C42.33925551 210.11280729 42.08106304 225.39756957 39 241 C38.83371094 241.85609863 38.66742188 242.71219727 38.49609375 243.59423828 C33.49973059 268.49740761 23.8965385 292.99165477 8 313 C7.47277344 313.75410156 6.94554687 314.50820313 6.40234375 315.28515625 C5.93957031 315.85105469 5.47679687 316.41695313 5 317 C4.34 317 3.68 317 3 317 C3.0721875 316.18917969 3.144375 315.37835938 3.21875 314.54296875 C4.94472415 293.95113828 3.97995447 271.73954796 -8 254 C-8.33 253.67 -8.66 253.34 -9 253 C-9.13986328 253.53141602 -9.27972656 254.06283203 -9.42382812 254.61035156 C-16.9509618 282.86735661 -28.5688021 308.55454757 -45.10205078 332.74316406 C-61.91056894 357.36529482 -70.06198437 384.79684981 -64.92041016 414.68261719 C-62.18262795 428.52931747 -57.90518988 442.41372409 -51.65429688 455.08325195 C-51 457 -51 457 -52 460 C-68.34787447 450.64653258 -84.13758984 440.59355162 -99 429 C-100.28777344 428.00226563 -100.28777344 428.00226563 -101.6015625 426.984375 C-132.82943925 402.42746883 -158.62208095 371.89851019 -163.68359375 331.1328125 C-167.72727923 285.25829516 -151.1828527 247.45250349 -131.21963501 207.41918945 C-120.21884067 185.33064374 -110.89307925 163.50815048 -107 139 C-106.8040625 137.82824219 -106.608125 136.65648437 -106.40625 135.44921875 C-106.2721875 134.64097656 -106.138125 133.83273438 -106 133 C-105.34 133 -104.68 133 -104 133 C-93.28279675 153.83900631 -88.27130783 173.72636123 -86 197 C-85.80871756 198.9023562 -85.61731796 200.80470063 -85.42578125 202.70703125 C-85.28356443 204.13799207 -85.14152183 205.56897028 -85 207 C-81.63953176 202.687141 -78.31094978 198.35091435 -75 194 C-74.48598633 193.32501465 -73.97197266 192.6500293 -73.44238281 191.95458984 C-58.26805255 171.93173969 -44.06711498 151.05016383 -32 129 C-31.32662598 127.7924707 -31.32662598 127.7924707 -30.63964844 126.56054688 C-14.1851479 96.96314339 0.33595364 61.79434618 0.09765625 27.34375 C0.0962413 26.55601196 0.09482635 25.76827393 0.09336853 24.95666504 C0.08782612 22.47106936 0.07528485 19.98556789 0.0625 17.5 C0.05747754 15.80208465 0.05291595 14.10416786 0.04882812 12.40625 C0.03787564 8.27079771 0.02065166 4.13541476 0 0 Z " fill="#000000" transform="translate(219,27)"/>
</svg>
